<svg width="50" height="50" viewBox="0 0 50 50" fill="none" xmlns="http://www.w3.org/2000/svg">
<path d="M23.7059 0.346752C24.5537 0.119591 25.4463 0.119591 26.2941 0.346752L36.2059 3.00261C37.0537 3.22977 37.8267 3.67609 38.4473 4.29671L45.7033 11.5527C46.3239 12.1733 46.7702 12.9463 46.9974 13.7941L49.6532 23.7059C49.8804 24.5537 49.8804 25.4463 49.6532 26.2941L46.9974 36.2059C46.7702 37.0537 46.3239 37.8267 45.7033 38.4473L38.4473 45.7033C37.8267 46.3239 37.0537 46.7702 36.2059 46.9974L26.2941 49.6532C25.4463 49.8804 24.5537 49.8804 23.7059 49.6532L13.7941 46.9974C12.9463 46.7702 12.1733 46.3239 11.5527 45.7033L4.29671 38.4473C3.67609 37.8267 3.22977 37.0537 3.00261 36.2059L0.346752 26.2941C0.119591 25.4463 0.119591 24.5537 0.346752 23.7059L3.00261 13.7941C3.22977 12.9463 3.67609 12.1733 4.29671 11.5527L11.5527 4.29671C12.1733 3.67609 12.9463 3.22977 13.7941 3.00261L23.7059 0.346752Z" fill="#FF4567"/>
<path d="M34.7497 17.0227C34.7622 16.6087 34.4367 16.2629 34.0227 16.2503L27.2758 16.0459C26.8618 16.0333 26.516 16.3588 26.5034 16.7728C26.4909 17.1869 26.8164 17.5327 27.2304 17.5452L33.2276 17.7269L33.0459 23.7242C33.0333 24.1382 33.3588 24.484 33.7728 24.4966C34.1869 24.5091 34.5327 24.1836 34.5452 23.7696L34.7497 17.0227ZM17.514 33.5462L34.514 17.5462L33.486 16.4539L16.486 32.4538L17.514 33.5462Z" fill="white"/>
</svg>
