<svg width="122" height="41" viewBox="0 0 122 41" fill="none" xmlns="http://www.w3.org/2000/svg">
<rect x="-0.5" y="0.5" width="121" height="40" rx="20" transform="matrix(-1 0 0 1 121 0)" fill="white" stroke="#FF4567"/>
<path d="M94 20.5H94.5V21.5H94V20.5ZM23.6464 21.3536C23.4512 21.1583 23.4512 20.8417 23.6464 20.6464L26.8284 17.4645C27.0237 17.2692 27.3403 17.2692 27.5355 17.4645C27.7308 17.6597 27.7308 17.9763 27.5355 18.1716L24.7071 21L27.5355 23.8284C27.7308 24.0237 27.7308 24.3403 27.5355 24.5355C27.3403 24.7308 27.0237 24.7308 26.8284 24.5355L23.6464 21.3536ZM94 21.5H24V20.5H94V21.5Z" fill="#FF4567"/>
</svg>
