<svg width="145" height="145" viewBox="0 0 145 145" fill="none" xmlns="http://www.w3.org/2000/svg">
<path d="M71.2059 0.346751C72.0537 0.11959 72.9463 0.119591 73.7941 0.346752L107.456 9.36641C108.304 9.59357 109.077 10.0399 109.697 10.6605L134.339 35.3027C134.96 35.9233 135.406 36.6963 135.634 37.5441L144.653 71.2059C144.88 72.0537 144.88 72.9463 144.653 73.7941L135.634 107.456C135.406 108.304 134.96 109.077 134.339 109.697L109.697 134.339C109.077 134.96 108.304 135.406 107.456 135.634L73.7941 144.653C72.9463 144.88 72.0537 144.88 71.2059 144.653L37.5441 135.634C36.6963 135.406 35.9233 134.96 35.3027 134.339L10.6605 109.697C10.0399 109.077 9.59357 108.304 9.36641 107.456L0.346751 73.7941C0.11959 72.9463 0.119591 72.0537 0.346752 71.2059L9.36641 37.5441C9.59357 36.6963 10.0399 35.9233 10.6605 35.3027L35.3027 10.6605C35.9233 10.0399 36.6963 9.59357 37.5441 9.36641L71.2059 0.346751Z" fill="#FF4567"/>
</svg>
