<svg width="1699" height="829" viewBox="0 0 1699 829" fill="none" xmlns="http://www.w3.org/2000/svg">
<path d="M1262.98 107.542C1256.33 108.234 1251.18 103.984 1250.42 96.7087C1249.66 89.433 1254.01 84.1951 1260.97 83.4707C1267.03 82.8405 1271.9 85.6768 1272.44 90.8638L1272.47 91.1771L1269.79 91.456L1269.76 91.1427C1269.36 87.2785 1266.34 85.3403 1261.19 85.8764C1255.3 86.4885 1252.37 90.1013 1253.03 96.4371C1253.69 102.773 1257.27 105.708 1263.08 105.103C1268.62 104.528 1271.11 102.156 1270.64 97.6308L1270.55 96.7605L1261.29 97.7239L1261.09 95.7745L1272.86 94.5503L1274.05 106.038L1271.82 106.27L1271.3 101.187L1271.12 101.206C1270.33 105.088 1267.13 107.111 1262.98 107.542ZM1280.23 105.395L1277.76 105.652L1275.97 88.455L1278.2 88.2232L1278.69 92.9229L1278.86 92.9048C1279.1 90.1003 1280.81 87.5998 1284.4 87.2268C1288.37 86.8139 1290.41 89.557 1290.74 92.7597L1290.92 94.4655L1288.45 94.7227L1288.31 93.3998C1288.01 90.4756 1286.64 89.1751 1283.65 89.4866C1280.17 89.8487 1278.86 92.2013 1279.26 96.0654L1280.23 105.395ZM1299.6 103.732C1296.22 104.083 1293.76 102.721 1293.47 99.9361C1293.18 97.1164 1295.38 95.6553 1298.55 94.9739L1306.64 93.2177L1306.5 91.8948C1306.15 88.5528 1304.55 87.3821 1300.79 87.7733C1297.1 88.1572 1295.29 89.6829 1295.6 92.7115L1295.62 92.8508L1293.15 93.1079L1293.13 92.9687C1292.76 89.3482 1295.44 86.0777 1300.73 85.5272C1305.95 84.9839 1308.49 87.7459 1308.89 91.5405L1310.01 102.297L1307.78 102.529L1307.3 97.8992L1307.12 97.9173C1306.44 101.19 1303.6 103.316 1299.6 103.732ZM1295.92 99.5049C1296.1 101.246 1297.35 102.031 1299.96 101.759C1304.14 101.325 1307.25 99.1357 1306.82 94.9931L1306.81 94.8538L1299.48 96.4608C1296.93 96.9725 1295.74 97.7295 1295.92 99.5049ZM1317.16 107.536L1314.69 107.793L1312.28 84.6775L1314.51 84.4457L1315.01 89.2846L1315.29 89.2556C1315.73 86.0777 1318.09 83.7209 1322.17 83.2971C1327.53 82.7394 1330.98 86.1455 1331.52 91.3674C1332.07 96.5892 1329.42 100.629 1323.96 101.198C1320.16 101.593 1317.2 99.79 1316.05 96.5662L1316.02 96.5698L1317.16 107.536ZM1315.68 93.3322C1316.1 97.4053 1319.02 99.424 1323.06 99.0038C1327.07 98.5873 1329.53 96.6063 1329.02 91.6281C1328.5 86.65 1325.64 85.2579 1321.74 85.6636C1317.46 86.1091 1315.21 88.7719 1315.65 93.0189L1315.68 93.3322ZM1337.93 99.3928L1335.45 99.6499L1333.03 76.3258L1335.5 76.0686L1336.68 87.4522L1336.86 87.4341C1337.11 84.4867 1339.06 81.5396 1343.45 81.0832C1348.25 80.5834 1350.99 83.5362 1351.44 87.8877L1352.48 97.8788L1350.01 98.136L1349 88.4582C1348.59 84.5244 1346.57 83.0454 1342.71 83.4474C1338.11 83.9255 1336.64 87.0345 1337.09 91.3163L1337.93 99.3928ZM1357.02 77.8059L1354.55 78.0631L1354.14 74.1293L1356.61 73.8722L1357.02 77.8059ZM1359.04 97.1963L1356.57 97.4534L1354.78 80.2562L1357.25 79.9991L1359.04 97.1963ZM1371.45 96.2571C1365.95 96.8293 1361.97 93.4775 1361.43 88.2557C1360.89 83.0339 1364.09 78.9359 1369.59 78.3636C1374.39 77.8638 1378.45 80.3273 1378.88 84.4699L1378.91 84.7484L1376.47 85.0019L1376.45 84.793C1376.13 81.7296 1373.72 80.2208 1369.79 80.6301C1365.19 81.1081 1363.46 83.7862 1363.9 87.9985C1364.34 92.2108 1366.58 94.476 1371.18 93.9979C1375.11 93.5886 1377.16 91.6162 1376.84 88.5528L1376.82 88.3439L1379.25 88.0903L1379.28 88.3688C1379.71 92.5115 1376.25 95.7572 1371.45 96.2571ZM1397.13 93.585C1391.63 94.1573 1388.18 90.7511 1387.63 85.5293C1387.09 80.3075 1389.77 76.2639 1395.06 75.7134C1399.13 75.2896 1401.9 77.2184 1402.98 80.0977L1403.15 80.0796L1402.01 69.1486L1404.48 68.8914L1406.91 92.2155L1404.65 92.451L1404.12 87.3684L1403.98 87.3829C1403.5 90.9162 1400.92 93.1903 1397.13 93.585ZM1390.14 85.2685C1390.66 90.2467 1393.48 91.6772 1397.52 91.2571C1401.56 90.8369 1404 88.2256 1403.57 84.1526L1403.54 83.8393C1403.1 79.5922 1400.31 77.4894 1396.06 77.9313C1392.13 78.3405 1389.62 80.2904 1390.14 85.2685ZM1419.28 91.2806C1413.74 91.8565 1409.87 88.7411 1409.3 83.2756C1408.75 78.0537 1411.85 73.9667 1417.38 73.3908C1422.43 72.8656 1426.32 75.4168 1426.85 80.5341C1426.92 81.1608 1426.9 81.6902 1426.85 82.1536L1411.7 83.7291C1412.24 87.5788 1414.47 89.7048 1419.03 89.2303C1423.07 88.8101 1424.79 87.1176 1424.53 84.6112L1424.51 84.3675L1426.98 84.1103L1427 84.354C1427.38 87.9397 1424.08 90.7808 1419.28 91.2806ZM1417.56 75.4483C1413.11 75.9119 1411.33 78.4196 1411.54 82.1974L1424.53 80.8464C1424.51 80.6724 1424.49 80.4983 1424.47 80.3243C1424.1 76.7038 1421.6 75.0282 1417.56 75.4483ZM1438.71 89.2589C1433.42 89.8095 1430.13 88.0047 1429.72 84.0361L1429.71 83.9665L1432.19 83.7093L1432.21 83.9182C1432.51 86.8076 1434.32 87.6397 1438.53 87.2014C1442.4 86.7994 1443.62 85.7566 1443.42 83.7723C1443.23 81.9621 1442.09 81.4826 1439.19 81.327L1434.52 81.1437C1431.35 81.0519 1429.24 80.0399 1428.94 77.1853C1428.62 74.1567 1431.31 71.9414 1436.05 71.4488C1440.99 70.9345 1444.41 72.69 1444.83 76.7282L1444.84 76.7979L1442.37 77.055L1442.35 76.8809C1442.08 74.3049 1440.58 73.0536 1436.19 73.51C1432.57 73.8867 1431.16 74.9127 1431.38 76.9666C1431.56 78.742 1432.53 79.2745 1435.43 79.3952L1439.71 79.5488C1443.45 79.6871 1445.56 80.7338 1445.85 83.5188C1446.19 86.7563 1443.17 88.7953 1438.71 89.2589ZM1450.03 68.1287L1447.56 68.3858L1447.15 64.4521L1449.62 64.1949L1450.03 68.1287ZM1452.05 87.519L1449.58 87.7762L1447.79 70.579L1450.26 70.3218L1452.05 87.519ZM1463.44 84.9261C1458.33 85.4586 1454.84 82.4077 1454.35 77.7081C1453.86 73.0085 1456.75 69.2949 1462.04 68.7443C1465.66 68.3677 1468.69 69.7765 1469.71 72.7675L1469.88 72.7494L1469.42 68.3282L1471.65 68.0964L1473.27 83.6575C1473.86 89.3318 1470.51 91.9329 1465.32 92.4725C1460.66 92.9578 1456.86 90.9949 1456.45 86.9915L1458.92 86.7343C1459.23 89.763 1461.37 90.7365 1465.2 90.3381C1469.66 89.8745 1471.26 88.3357 1470.81 84.0539L1470.35 79.5631L1470.17 79.5812C1469.75 82.2994 1467.41 84.5132 1463.44 84.9261ZM1456.82 77.451C1457.28 81.8373 1460.15 83.0517 1463.88 82.6642C1468.12 82.2223 1470.38 79.8416 1469.99 76.1863L1469.93 75.5945C1469.58 72.2177 1466.8 70.4667 1462.83 70.8796C1458.96 71.2816 1456.37 73.0646 1456.82 77.451ZM1480.1 84.601L1477.63 84.8581L1475.84 67.661L1478.07 67.4292L1478.63 72.825L1478.8 72.8069C1479.09 69.8211 1481.23 66.7478 1485.51 66.3023C1490.35 65.7989 1493.11 68.9954 1493.54 73.0684L1494.58 83.0943L1492.11 83.3514L1491.1 73.6737C1490.73 70.1228 1488.81 68.2464 1484.88 68.6557C1480.7 69.0903 1478.77 71.8598 1479.23 76.2809L1480.1 84.601ZM1506.82 82.1728C1501.28 82.7487 1497.41 79.6333 1496.84 74.1678C1496.29 68.946 1499.39 64.8589 1504.92 64.283C1509.97 63.7578 1513.86 66.309 1514.39 71.4264C1514.46 72.053 1514.44 72.5824 1514.39 73.0458L1499.24 74.6213C1499.78 78.471 1502.01 80.597 1506.57 80.1225C1510.61 79.7024 1512.33 78.0099 1512.07 75.5034L1512.05 75.2597L1514.52 75.0025L1514.54 75.2462C1514.92 78.8319 1511.62 81.673 1506.82 82.1728ZM1505.1 66.3405C1500.65 66.8041 1498.87 69.3118 1499.08 73.0896L1512.07 71.7386C1512.05 71.5646 1512.03 71.3905 1512.01 71.2165C1511.64 67.596 1509.14 65.9204 1505.1 66.3405ZM1521.13 80.3318L1518.66 80.589L1516.87 63.3918L1519.1 63.16L1519.59 67.8596L1519.76 67.8415C1520 65.037 1521.71 62.5366 1525.29 62.1636C1529.26 61.7507 1531.31 64.4938 1531.64 67.6965L1531.82 69.4023L1529.35 69.6594L1529.21 68.3366C1528.9 65.4124 1527.54 64.1118 1524.54 64.4233C1521.06 64.7855 1519.76 67.138 1520.16 71.0022L1521.13 80.3318Z" fill="black"/>
<path d="M227.051 708.869L213.659 708.89L213.631 690.8L215.548 690.797L215.574 707.132L227.049 707.114L227.051 708.869ZM235.75 709.125C231.403 709.132 228.51 706.248 228.503 702.198C228.497 698.148 231.382 695.254 235.729 695.247C240.103 695.24 242.996 698.125 243.002 702.175C243.009 706.225 240.124 709.118 235.75 709.125ZM235.748 707.397C239.42 707.391 241.118 705.418 241.112 702.178C241.107 698.965 239.403 696.969 235.731 696.975C232.059 696.981 230.388 698.982 230.393 702.195C230.399 705.435 232.076 707.403 235.748 707.397ZM247.481 708.837L245.564 708.84L245.543 695.502L247.271 695.499L247.277 699.684L247.412 699.684C247.868 697.415 249.754 695.225 253.075 695.22C256.828 695.214 258.695 697.884 258.7 701.043L258.713 708.819L256.796 708.822L256.784 701.316C256.779 698.562 255.454 696.971 252.403 696.976C249.163 696.981 247.465 698.955 247.47 702.384L247.481 708.837ZM267.584 709.075C263.318 709.082 260.937 706.197 260.931 702.147C260.924 698.097 263.296 695.204 267.4 695.197C270.559 695.192 272.532 696.89 273.13 699.184L273.265 699.184L273.252 690.706L275.169 690.703L275.197 708.793L273.442 708.796L273.436 704.854L273.328 704.854C272.684 707.528 270.527 709.07 267.584 709.075ZM262.875 702.144C262.881 706.004 264.935 707.324 268.067 707.319C271.199 707.314 273.275 705.502 273.27 702.343L273.27 702.1C273.264 698.806 271.291 696.973 267.997 696.978C264.946 696.983 262.869 698.283 262.875 702.144ZM284.952 709.048C280.605 709.055 277.711 706.17 277.705 702.12C277.698 698.07 280.583 695.177 284.93 695.17C289.304 695.163 292.197 698.047 292.204 702.097C292.21 706.147 289.326 709.041 284.952 709.048ZM284.949 707.32C288.621 707.314 290.319 705.34 290.314 702.1C290.309 698.887 288.604 696.892 284.932 696.898C281.26 696.904 279.59 698.904 279.595 702.117C279.6 705.357 281.277 707.326 284.949 707.32ZM296.682 708.759L294.765 708.762L294.744 695.424L296.472 695.422L296.478 699.607L296.613 699.606C297.069 697.338 298.955 695.148 302.276 695.142C306.029 695.137 307.896 697.807 307.901 700.966L307.914 708.742L305.997 708.745L305.985 701.239C305.981 698.485 304.655 696.894 301.604 696.899C298.364 696.904 296.666 698.877 296.672 702.306L296.682 708.759ZM317.556 701.679L310.212 701.691L310.209 699.99L317.553 699.978L317.556 701.679ZM321.726 708.72L319.998 708.723L319.97 690.633L321.887 690.63L321.9 699.108L322.035 699.107C322.598 696.811 324.513 695.107 327.726 695.102C331.911 695.096 334.21 697.981 334.217 702.031C334.223 706.081 331.933 708.974 327.586 708.981C324.616 708.985 322.48 707.45 321.855 704.778L321.72 704.778L321.726 708.72ZM321.905 702.267C321.91 705.426 323.911 707.231 327.124 707.226C330.31 707.221 332.279 705.895 332.273 702.034C332.266 698.173 330.239 696.88 327.161 696.885C323.786 696.891 321.899 698.73 321.905 702.024L321.905 702.267ZM340.282 708.961C337.663 708.965 335.88 707.726 335.876 705.566C335.873 703.379 337.68 702.431 340.164 702.157L346.508 701.445L346.506 700.419C346.502 697.827 345.366 696.803 342.45 696.807C339.588 696.812 338.078 697.84 338.082 700.189L338.082 700.297L336.165 700.3L336.165 700.192C336.16 697.384 338.479 695.085 342.583 695.079C346.633 695.073 348.364 697.392 348.369 700.335L348.382 708.678L346.654 708.681L346.648 705.09L346.513 705.09C345.734 707.548 343.387 708.956 340.282 708.961ZM337.793 705.428C337.795 706.778 338.687 707.478 340.712 707.475C343.952 707.47 346.515 706.035 346.51 702.822L346.51 702.714L340.76 703.371C338.762 703.563 337.791 704.051 337.793 705.428ZM357.393 708.934C353.289 708.94 350.91 707.297 350.905 704.219L350.905 704.165L352.822 704.162L352.822 704.324C352.826 706.565 354.15 707.346 357.417 707.341C360.414 707.336 361.439 706.632 361.437 705.093C361.434 703.689 360.597 703.232 358.382 702.884L354.817 702.377C352.387 702.057 350.846 701.114 350.843 698.9C350.839 696.551 353.078 695.062 356.75 695.057C360.584 695.051 363.07 696.667 363.075 699.799L363.075 699.853L361.158 699.856L361.158 699.721C361.155 697.723 360.1 696.644 356.698 696.65C353.89 696.654 352.73 697.331 352.733 698.924C352.735 700.301 353.438 700.786 355.652 701.106L358.92 701.56C361.783 701.961 363.323 702.93 363.327 705.09C363.331 707.601 360.849 708.928 357.393 708.934ZM372.196 708.91C367.903 708.917 365.172 706.221 365.165 701.982C365.159 697.932 367.854 695.039 372.147 695.032C376.062 695.026 378.847 697.29 378.853 701.259C378.854 701.745 378.8 702.15 378.72 702.501L366.975 702.52C367.088 705.516 368.629 707.323 372.166 707.317C375.298 707.313 376.755 706.149 376.752 704.205L376.751 704.016L378.668 704.013L378.669 704.202C378.673 706.983 375.922 708.905 372.196 708.91ZM372.123 696.625C368.667 696.631 367.103 698.415 366.973 701.332L377.044 701.316C377.044 701.181 377.044 701.046 377.043 700.911C377.039 698.103 375.255 696.621 372.123 696.625ZM387.159 708.887C382.893 708.894 380.512 706.008 380.506 701.958C380.499 697.908 382.871 695.016 386.975 695.009C390.134 695.004 392.107 696.702 392.705 698.996L392.84 698.996L392.827 690.518L394.744 690.515L394.772 708.605L393.017 708.608L393.011 704.666L392.903 704.666C392.259 707.34 390.102 708.882 387.159 708.887ZM382.45 701.955C382.456 705.816 384.51 707.136 387.642 707.131C390.774 707.126 392.85 705.314 392.845 702.155L392.845 701.912C392.839 698.618 390.866 696.785 387.572 696.79C384.521 696.795 382.444 698.094 382.45 701.955Z" fill="black"/>
<path d="M1 828.5C78.1285 765.235 198.5 666.5 198.5 666.5H587.5L782 572L858.5 354L1085 80.5L1559.5 30L1698 0.5" stroke="#FF4567"/>
</svg>
