<svg width="205" height="27" viewBox="0 0 205 27" fill="none" xmlns="http://www.w3.org/2000/svg">
<path d="M15.039 9.8302C15.389 9.1302 15.564 8.45353 15.564 7.80019C15.564 7.14686 15.529 6.64519 15.459 6.2952C15.389 5.92186 15.2723 5.59519 15.109 5.3152C14.759 4.70853 14.234 4.40519 13.534 4.40519C12.6706 4.40519 11.889 4.72019 11.189 5.35019C10.4423 6.00353 10.069 6.84353 10.069 7.8702C10.069 8.52353 10.2906 9.10686 10.734 9.6202C11.2006 10.1102 11.784 10.5885 12.484 11.0552C13.184 11.5219 13.9306 11.9885 14.724 12.4552C15.5173 12.9219 16.264 13.4352 16.964 13.9952C18.574 15.2785 19.379 16.7835 19.379 18.5102C19.379 19.6769 19.064 20.7619 18.434 21.7652C17.8273 22.7452 17.0106 23.5969 15.984 24.3202C13.744 25.9069 11.1423 26.7002 8.17895 26.7002C5.77562 26.7002 3.95562 26.3152 2.71895 25.5452C1.48229 24.7519 0.863953 23.7602 0.863953 22.5702C0.863953 20.4469 1.69229 19.1169 3.34895 18.5802C3.81562 18.4169 4.39895 18.3352 5.09895 18.3352C5.82229 18.3352 6.59229 18.4869 7.40895 18.7902C7.03562 19.7469 6.84895 20.6569 6.84895 21.5202C6.84895 23.3869 7.51395 24.3202 8.84395 24.3202C9.70729 24.3202 10.489 24.0052 11.189 23.3752C11.9123 22.7452 12.274 22.0802 12.274 21.3802C12.274 20.6569 12.0406 20.0385 11.574 19.5252C11.1306 19.0119 10.5706 18.5569 9.89395 18.1602C9.21729 17.7402 8.48229 17.3319 7.68895 16.9352C6.91895 16.5385 6.19562 16.0602 5.51895 15.5002C3.93229 14.2169 3.13895 12.5485 3.13895 10.4952C3.13895 9.1652 3.46562 7.98686 4.11895 6.9602C4.77229 5.91019 5.62395 5.03519 6.67395 4.3352C8.77395 2.91186 11.1073 2.2002 13.674 2.2002C16.264 2.2002 18.1773 2.5852 19.414 3.3552C20.674 4.1252 21.304 5.16353 21.304 6.47019C21.304 7.61353 20.8606 8.54686 19.974 9.2702C19.204 9.87686 18.3523 10.1802 17.419 10.1802C16.4856 10.1802 15.6923 10.0635 15.039 9.8302Z" fill="black"/>
<path d="M44.6104 26.7002C41.6237 26.7002 39.9904 24.5769 39.7104 20.3302H33.6904C33.2237 21.4035 32.8271 22.4069 32.5004 23.3402L31.5904 26.0002H26.6904L37.7154 2.9002H45.2404L46.7104 19.9102C46.9437 22.3602 47.5271 23.9469 48.4604 24.6702C47.7837 26.0235 46.5004 26.7002 44.6104 26.7002ZM34.7754 17.7752H39.6054L39.1854 8.7802V7.83519L36.7004 13.3302L34.7754 17.7752Z" fill="black"/>
<path d="M80.4321 11.4752C80.4321 21.4152 75.0421 26.3852 64.2621 26.3852C62.5354 26.3852 60.2487 26.1752 57.4021 25.7552L61.3221 5.07019C61.5087 4.13686 61.6604 3.40186 61.7771 2.8652C65.3237 2.60853 67.8787 2.48019 69.4421 2.48019C71.0287 2.48019 72.5454 2.64353 73.9921 2.97019C75.4387 3.29686 76.6404 3.82186 77.5971 4.54519C79.4871 5.96853 80.4321 8.27853 80.4321 11.4752ZM73.2221 10.1802C73.2221 6.70353 71.9737 4.9652 69.4771 4.9652H69.1271C69.0104 4.9652 68.8937 4.97686 68.7771 5.0002L65.1721 23.7952C65.2654 23.8419 65.3587 23.8652 65.4521 23.8652H65.7321C66.5954 23.8652 67.4704 23.5969 68.3571 23.0602C69.2671 22.5235 70.0721 21.7069 70.7721 20.6102C72.4054 18.0669 73.2221 14.5902 73.2221 10.1802Z" fill="black"/>
<path d="M97.8358 24.0752C97.1125 25.8252 95.5958 26.7002 93.2858 26.7002C92.0958 26.7002 91.1275 26.2919 90.3808 25.4752C89.7508 24.7519 89.4358 24.0285 89.4358 23.3052C89.4358 21.4152 89.8675 18.6269 90.7308 14.9402L92.0258 8.15019L99.1308 7.45019L96.9958 18.5102C96.5992 20.2369 96.4008 21.4035 96.4008 22.0102C96.4008 23.3402 96.8792 24.0285 97.8358 24.0752ZM92.6558 3.28519C92.6558 2.37519 93.0292 1.67519 93.7758 1.18519C94.5458 0.695195 95.4792 0.450195 96.5758 0.450195C97.6725 0.450195 98.5475 0.695195 99.2008 1.18519C99.8775 1.67519 100.216 2.37519 100.216 3.28519C100.216 4.1952 99.8425 4.88353 99.0958 5.35019C98.3725 5.81686 97.4625 6.05019 96.3658 6.05019C95.2692 6.05019 94.3708 5.81686 93.6708 5.35019C92.9942 4.88353 92.6558 4.1952 92.6558 3.28519Z" fill="black"/>
<path d="M122.975 20.6102C123.418 21.1702 123.64 21.9052 123.64 22.8152C123.64 24.0752 123.173 25.0435 122.24 25.7202C121.306 26.3735 120.105 26.7002 118.635 26.7002C117.795 26.7002 116.733 26.6069 115.45 26.4202C112.93 26.0235 111.285 25.8252 110.515 25.8252C109.745 25.8252 109.208 25.8485 108.905 25.8952C108.601 25.9185 108.205 25.9535 107.715 26.0002L112.02 2.9002H127.105C127.105 4.32353 126.755 5.40853 126.055 6.15519C125.378 6.90186 124.363 7.2752 123.01 7.2752C121.656 7.2752 120.291 6.96019 118.915 6.33019L117.83 12.4552H124.06C124.06 13.6919 123.756 14.6602 123.15 15.3602C122.543 16.0369 121.726 16.3752 120.7 16.3752C119.696 16.3752 118.88 16.2585 118.25 16.0252C117.62 15.7919 117.27 15.6402 117.2 15.5702L115.94 22.1852C116.5 22.2552 117.305 22.2902 118.355 22.2902C120.151 22.2902 121.691 21.7302 122.975 20.6102Z" fill="black"/>
<path d="M163.128 20.6102C163.572 21.1702 163.793 21.9985 163.793 23.0952C163.793 24.1685 163.373 25.0435 162.533 25.7202C161.717 26.3735 160.585 26.7002 159.138 26.7002C158.298 26.7002 157.225 26.6069 155.918 26.4202C153.352 26.0235 151.695 25.8252 150.948 25.8252C150.225 25.8252 149.712 25.8485 149.408 25.8952C149.105 25.9185 148.708 25.9535 148.218 26.0002L152.453 2.9002H160.118L156.618 22.1502C156.922 22.1969 157.213 22.2202 157.493 22.2202H158.368C160.328 22.2202 161.915 21.6835 163.128 20.6102Z" fill="black"/>
<path d="M181.08 20.6102C181.523 21.1702 181.745 21.9052 181.745 22.8152C181.745 24.0752 181.278 25.0435 180.345 25.7202C179.412 26.3735 178.21 26.7002 176.74 26.7002C175.9 26.7002 174.838 26.6069 173.555 26.4202C171.035 26.0235 169.39 25.8252 168.62 25.8252C167.85 25.8252 167.313 25.8485 167.01 25.8952C166.707 25.9185 166.31 25.9535 165.82 26.0002L170.125 2.9002H185.21C185.21 4.32353 184.86 5.40853 184.16 6.15519C183.483 6.90186 182.468 7.2752 181.115 7.2752C179.762 7.2752 178.397 6.96019 177.02 6.33019L175.935 12.4552H182.165C182.165 13.6919 181.862 14.6602 181.255 15.3602C180.648 16.0369 179.832 16.3752 178.805 16.3752C177.802 16.3752 176.985 16.2585 176.355 16.0252C175.725 15.7919 175.375 15.6402 175.305 15.5702L174.045 22.1852C174.605 22.2552 175.41 22.2902 176.46 22.2902C178.257 22.2902 179.797 21.7302 181.08 20.6102Z" fill="black"/>
<path d="M199.913 20.6102C200.356 21.1702 200.578 21.9052 200.578 22.8152C200.578 24.0752 200.111 25.0435 199.178 25.7202C198.245 26.3735 197.043 26.7002 195.573 26.7002C194.733 26.7002 193.671 26.6069 192.388 26.4202C189.868 26.0235 188.223 25.8252 187.453 25.8252C186.683 25.8252 186.146 25.8485 185.843 25.8952C185.54 25.9185 185.143 25.9535 184.653 26.0002L188.958 2.9002H204.043C204.043 4.32353 203.693 5.40853 202.993 6.15519C202.316 6.90186 201.301 7.2752 199.948 7.2752C198.595 7.2752 197.23 6.96019 195.853 6.33019L194.768 12.4552H200.998C200.998 13.6919 200.695 14.6602 200.088 15.3602C199.481 16.0369 198.665 16.3752 197.638 16.3752C196.635 16.3752 195.818 16.2585 195.188 16.0252C194.558 15.7919 194.208 15.6402 194.138 15.5702L192.878 22.1852C193.438 22.2552 194.243 22.2902 195.293 22.2902C197.09 22.2902 198.63 21.7302 199.913 20.6102Z" fill="black"/>
</svg>
