<svg width="7" height="7" viewBox="0 0 7 7" fill="none" xmlns="http://www.w3.org/2000/svg">
<path d="M2.43018 1.00322C2.94534 0.251545 4.05466 0.251545 4.56982 1.00322C4.80348 1.34416 5.14753 1.59413 5.54398 1.71099C6.41806 1.96866 6.76086 3.02369 6.20517 3.74591C5.95312 4.07349 5.82171 4.47794 5.83307 4.89111C5.85812 5.80203 4.96066 6.45408 4.10207 6.14876C3.71263 6.01028 3.28737 6.01028 2.89793 6.14876C2.03934 6.45408 1.14188 5.80203 1.16693 4.89111C1.17829 4.47794 1.04688 4.07349 0.794832 3.74591C0.239136 3.02369 0.581936 1.96866 1.45602 1.71099C1.85247 1.59413 2.19652 1.34416 2.43018 1.00322Z" fill="#FF4567" stroke="#FF4567" stroke-width="0.5"/>
</svg>
