<svg width="49" height="49" viewBox="0 0 49 49" fill="none" xmlns="http://www.w3.org/2000/svg">
<path d="M25.7941 0.346752C24.9463 0.119591 24.0537 0.119591 23.2059 0.346752L13.5441 2.93563C12.6963 3.16279 11.9233 3.60911 11.3027 4.22972L4.22972 11.3027C3.60911 11.9233 3.16279 12.6963 2.93563 13.5441L0.346752 23.2059C0.119591 24.0537 0.119591 24.9463 0.346752 25.7941L2.93563 35.4559C3.16279 36.3037 3.60911 37.0767 4.22972 37.6973L11.3027 44.7703C11.9233 45.3909 12.6963 45.8372 13.5441 46.0644L23.2059 48.6532C24.0537 48.8804 24.9463 48.8804 25.7941 48.6532L35.4559 46.0644C36.3037 45.8372 37.0767 45.3909 37.6973 44.7703L44.7703 37.6973C45.3909 37.0767 45.8372 36.3037 46.0644 35.4559L48.6532 25.7941C48.8804 24.9463 48.8804 24.0537 48.6532 23.2059L46.0644 13.5441C45.8372 12.6963 45.3909 11.9233 44.7703 11.3027L37.6973 4.22972C37.0767 3.60911 36.3037 3.16279 35.4559 2.93563L25.7941 0.346752Z" fill="#FDF3F2" fill-opacity="0.8"/>
<path d="M39.3289 23.8555H10.6381L19.3421 32.5594" stroke="#FF4567" stroke-width="2"/>
</svg>
