<svg width="49" height="49" viewBox="0 0 49 49" fill="none" xmlns="http://www.w3.org/2000/svg">
<path d="M23.2059 0.346752C24.0537 0.119591 24.9463 0.119591 25.7941 0.346752L35.4559 2.93563C36.3037 3.16279 37.0767 3.60911 37.6973 4.22972L44.7703 11.3027C45.3909 11.9233 45.8372 12.6963 46.0644 13.5441L48.6532 23.2059C48.8804 24.0537 48.8804 24.9463 48.6532 25.7941L46.0644 35.4559C45.8372 36.3037 45.3909 37.0767 44.7703 37.6973L37.6973 44.7703C37.0767 45.3909 36.3037 45.8372 35.4559 46.0644L25.7941 48.6532C24.9463 48.8804 24.0537 48.8804 23.2059 48.6532L13.5441 46.0644C12.6963 45.8372 11.9233 45.3909 11.3027 44.7703L4.22972 37.6973C3.60911 37.0767 3.16279 36.3037 2.93563 35.4559L0.346752 25.7941C0.119591 24.9463 0.119591 24.0537 0.346752 23.2059L2.93563 13.5441C3.16279 12.6963 3.6091 11.9233 4.22972 11.3027L11.3027 4.22972C11.9233 3.60911 12.6963 3.16279 13.5441 2.93563L23.2059 0.346752Z" fill="#FDF3F2" fill-opacity="0.8"/>
<path d="M9.67114 23.8555H38.3619L29.658 32.5594" stroke="#FF4567" stroke-width="2"/>
</svg>
