<svg width="19" height="17" viewBox="0 0 19 17" fill="none" xmlns="http://www.w3.org/2000/svg">
<path d="M6.92473 2.53381C7.95452 0.38392 11.0455 0.38392 12.0753 2.53381C12.6335 3.69927 13.7562 4.50606 15.0432 4.653L15.2226 4.67348C17.5225 4.93607 18.4288 7.79558 16.7001 9.33508C15.7184 10.2093 15.2796 11.5453 15.5449 12.8309C16.0136 15.1022 13.6203 16.8929 11.5898 15.7984L11.3316 15.6592C10.1883 15.043 8.81172 15.043 7.66844 15.6592L7.41023 15.7984C5.37974 16.8929 2.98644 15.1022 3.45509 12.8309C3.72036 11.5453 3.28164 10.2093 2.29993 9.33508C0.571175 7.79559 1.4775 4.93608 3.77744 4.67348L3.95684 4.653C5.24379 4.50606 6.36648 3.69927 6.92473 2.53381Z" fill="white" stroke="black"/>
</svg>
