<svg width="106" height="103" viewBox="0 0 106 103" fill="none" xmlns="http://www.w3.org/2000/svg">
<path d="M51.7402 0.328016C52.5663 0.112924 53.4337 0.112924 54.2598 0.328016L78.2223 6.56702C79.0597 6.78507 79.8263 7.21673 80.4469 7.81979L97.9249 24.8031C98.563 25.4231 99.024 26.2022 99.2605 27.0599L105.633 50.1708C105.873 51.0407 105.873 51.9593 105.633 52.8292L99.2605 75.9401C99.024 76.7978 98.563 77.5769 97.9249 78.1969L80.4469 95.1802C79.8263 95.7833 79.0597 96.2149 78.2223 96.433L54.2598 102.672C53.4337 102.887 52.5663 102.887 51.7402 102.672L27.7777 96.433C26.9403 96.2149 26.1737 95.7833 25.5531 95.1802L8.07513 78.1969C7.43705 77.5769 6.97597 76.7978 6.73946 75.9401L0.366521 52.8292C0.126651 51.9593 0.12665 51.0407 0.36652 50.1708L6.73945 27.0599C6.97597 26.2022 7.43705 25.4231 8.07513 24.8031L25.5531 7.81979C26.1737 7.21673 26.9403 6.78507 27.7777 6.56702L51.7402 0.328016Z" fill="#FF4567"/>
</svg>
