<svg width="95" height="90" viewBox="0 0 95 90" fill="none" xmlns="http://www.w3.org/2000/svg">
<path d="M31.6905 10.96C38.0172 -2.31999 56.9828 -2.31999 63.3095 10.96C66.1317 16.8838 71.8094 20.9847 78.3113 21.7311L79.3021 21.8448C93.509 23.4757 99.1246 41.2476 88.4318 50.8215C83.4832 55.2522 81.2701 62.026 82.6078 68.5438C85.4973 82.6233 70.7451 93.7405 58.2071 86.9455L56.7811 86.1727C50.9879 83.0331 44.0121 83.0331 38.2189 86.1727L36.7929 86.9455C24.2549 93.7405 9.50274 82.6233 12.3922 68.5438C13.7299 62.026 11.5168 55.2522 6.56825 50.8215C-4.12458 41.2476 1.49095 23.4757 15.6979 21.8448L16.6887 21.7311C23.1906 20.9847 28.8683 16.8838 31.6905 10.96Z" fill="white" stroke="#FF4567" stroke-width="2"/>
</svg>
