<svg width="104" height="101" viewBox="0 0 104 101" fill="none" xmlns="http://www.w3.org/2000/svg">
<path d="M50.7408 0.32766C51.5665 0.112798 52.4335 0.112798 53.2592 0.32766L76.7226 6.43332C77.5599 6.65119 78.3263 7.08256 78.9469 7.68528L96.0583 24.3031C96.6967 24.9231 97.1581 25.7023 97.3948 26.5602L103.633 49.1702C103.873 50.0405 103.873 50.9595 103.633 51.8298L97.3948 74.4398C97.1581 75.2977 96.6967 76.0769 96.0583 76.6969L78.9469 93.3147C78.3263 93.9174 77.5599 94.3488 76.7226 94.5667L53.2592 100.672C52.4335 100.887 51.5665 100.887 50.7408 100.672L27.2774 94.5667C26.4401 94.3488 25.6737 93.9174 25.0531 93.3147L7.94168 76.6969C7.30326 76.0769 6.84189 75.2977 6.60519 74.4398L0.366916 51.8298C0.126791 50.9595 0.126792 50.0405 0.366917 49.1702L6.60519 26.5602C6.84189 25.7023 7.30326 24.9231 7.94168 24.3031L25.0531 7.68528C25.6737 7.08256 26.4401 6.65119 27.2774 6.43332L50.7408 0.32766Z" fill="#FF4567"/>
</svg>
